<svg width="25" height="24" viewBox="0 0 25 24" fill="none" xmlns="http://www.w3.org/2000/svg">
<path fill-rule="evenodd" clip-rule="evenodd" d="M14.7209 11.2331H17.4887C17.9084 11.2331 18.2382 10.8861 18.2382 10.4677C18.2382 10.0391 17.9084 9.70236 17.4887 9.70236H14.7209C14.3012 9.70236 13.9715 10.0391 13.9715 10.4677C13.9715 10.8861 14.3012 11.2331 14.7209 11.2331ZM20.7762 5.92749C21.3857 5.92749 21.7854 6.1418 22.1851 6.61123C22.5848 7.08067 22.6547 7.7542 22.5648 8.36549L21.6155 15.06C21.4357 16.3469 20.3565 17.2949 19.0875 17.2949H8.186C6.85703 17.2949 5.75789 16.255 5.64798 14.908L4.72869 3.7834L3.21987 3.51807C2.82018 3.44664 2.5404 3.04864 2.61034 2.64043C2.68029 2.22305 3.06998 1.94649 3.47967 2.00874L5.86281 2.3751C6.20254 2.43735 6.45235 2.72207 6.48233 3.06905L6.67218 5.35499C6.70215 5.68257 6.96195 5.92749 7.2817 5.92749H20.7762ZM8.02592 18.9079C7.18658 18.9079 6.50711 19.6018 6.50711 20.459C6.50711 21.3061 7.18658 22 8.02592 22C8.85528 22 9.53475 21.3061 9.53475 20.459C9.53475 19.6018 8.85528 18.9079 8.02592 18.9079ZM19.2672 18.9079C18.4278 18.9079 17.7483 19.6018 17.7483 20.459C17.7483 21.3061 18.4278 22 19.2672 22C20.0965 22 20.776 21.3061 20.776 20.459C20.776 19.6018 20.0965 18.9079 19.2672 18.9079Z" fill="#335EF7"/>
</svg>
