<svg width="25" height="24" viewBox="0 0 25 24" fill="none" xmlns="http://www.w3.org/2000/svg">
<path fill-rule="evenodd" clip-rule="evenodd" d="M8.2099 2H16.5909C19.6799 2 21.3999 3.78 21.3999 6.83V17.16C21.3999 20.26 19.6799 22 16.5909 22H8.2099C5.1699 22 3.3999 20.26 3.3999 17.16V6.83C3.3999 3.78 5.1699 2 8.2099 2ZM8.4799 6.66V6.65H11.4689C11.8999 6.65 12.2499 7 12.2499 7.429C12.2499 7.87 11.8999 8.22 11.4689 8.22H8.4799C8.0489 8.22 7.6999 7.87 7.6999 7.44C7.6999 7.01 8.0489 6.66 8.4799 6.66ZM8.4799 12.74H16.3199C16.7499 12.74 17.0999 12.39 17.0999 11.96C17.0999 11.53 16.7499 11.179 16.3199 11.179H8.4799C8.0489 11.179 7.6999 11.53 7.6999 11.96C7.6999 12.39 8.0489 12.74 8.4799 12.74ZM8.4799 17.31H16.3199C16.7189 17.27 17.0199 16.929 17.0199 16.53C17.0199 16.12 16.7189 15.78 16.3199 15.74H8.4799C8.1799 15.71 7.8899 15.85 7.7299 16.11C7.5699 16.36 7.5699 16.69 7.7299 16.95C7.8899 17.2 8.1799 17.35 8.4799 17.31Z" fill="#335EF7"/>
</svg>
