<svg width="215" height="155" viewBox="0 0 215 155" fill="none" xmlns="http://www.w3.org/2000/svg">
<path opacity="0.25" d="M123.148 -27.6696C124.735 -26.0822 124.735 -23.5116 123.148 -21.9331C121.562 -20.3457 118.993 -20.3457 117.416 -21.9331C115.829 -23.5206 115.829 -26.0912 117.416 -27.6696C119.002 -29.2571 121.562 -29.2571 123.148 -27.6696ZM114.225 -67.8523C108.772 -62.3954 108.772 -53.5381 114.225 -48.0812C119.678 -42.6243 128.529 -42.6243 133.982 -48.0812C139.436 -53.5381 139.436 -62.3954 133.982 -67.8523C128.529 -73.3092 119.687 -73.3182 114.225 -67.8523ZM214.842 -109C209.569 -100.278 205.495 -91.4567 190.659 -87.4159C170.766 -82.0041 150.675 -91.4838 130.819 -90.3203C66.1292 -86.514 119.372 -21.9331 92.6828 8.94122C71.0866 33.9347 35.6187 19.395 20.5032 52.7678C11.1562 73.3958 10.2819 95.6743 -1.8682 115.698C-12.9908 134.026 -28.0793 151.109 -50 154.158V130.959C-49.6845 130.977 -49.36 130.986 -49.0536 130.986C-41.969 131.013 -35.6776 126.982 -30.5129 122.49C-22.2746 115.328 -15.1721 106.678 -8.95277 97.7309C-5.81609 93.221 -2.9408 88.7653 -1.34542 83.4617C-0.624348 81.0625 2.28699 68.6514 1.03413 65.2059C-0.209728 61.7965 -3.85117 59.6137 -7.42049 60.4525C-14.6943 62.1573 -13.6668 71.673 -15.9833 77.0578C-19.6968 85.6986 -27.4844 92.1837 -36.1914 95.3947C-40.8604 97.1175 -45.6375 98.4163 -49.991 100.545V-109H169.982C161.735 -106.312 153.1 -104.409 144.528 -103.76C142.32 -103.597 142.23 -100.522 143.987 -99.9713C146.169 -98.4109 148.638 -98.3297 151.216 -97.6984C153.019 -97.2564 170.226 -93.9011 176.382 -93.5493C184.007 -93.1073 193.228 -94.2799 199.114 -99.5564C201.241 -101.469 203.17 -103.796 203.062 -106.817C203.034 -107.557 202.89 -108.287 202.683 -109H214.842ZM10.6244 40.9791C8.96596 35.7477 3.47677 33.8986 -1.03897 36.8932C-2.98587 38.183 -4.70743 40.2034 -4.83362 42.6026C-4.95981 42.8191 -5.06798 43.0536 -5.14009 43.3152C-6.75349 48.6729 -1.02094 52.3529 3.73816 51.929C9.22735 51.4329 12.2559 46.1293 10.6244 40.9791Z" fill="white"/>
</svg>
