<svg width="297" height="181" viewBox="0 0 297 181" fill="none" xmlns="http://www.w3.org/2000/svg">
<path opacity="0.25" d="M347.421 -27.3157C343.685 -24.0531 339.643 -21.0733 335.011 -18.5174C323.933 -12.4163 310.109 -12.4163 299.031 -5.74988C266.951 13.5427 267.116 48.2764 255.024 79.4767C236.015 128.521 202.921 119.499 158.644 123.939C124.408 127.367 85.0214 144.445 84.7385 184.844C84.5617 211.203 114.131 228.658 91.3029 248.01C78.4805 258.881 55.6877 252.132 40.9797 257.02C20.6501 263.769 9.41867 276.23 0.473633 291L347.397 290.293L347.421 -27.3157ZM271.323 56.0853C272.867 52.4459 273.81 48.5944 275.354 44.9432C276.768 41.61 278.324 38.3356 279.667 34.9671C282.343 28.2418 285.159 21.8463 289.602 16.075C295.448 8.4781 304.204 -1.87489 314.811 -0.755964C315.377 -0.697075 315.884 -0.0257378 315.895 0.516058C315.907 4.66196 311.994 7.53584 309.19 10.0328C304.44 14.2494 299.773 18.7015 295.365 23.2714C290.321 28.5127 286.137 34.1191 283.509 40.9386C282.307 44.048 281.364 47.2988 279.962 50.3258C278.548 53.3763 276.438 55.6024 274.058 57.958C273.445 58.5587 272.655 58.4409 272.137 58.0051C271.488 57.7107 270.958 56.9451 271.323 56.0853ZM193.128 136.872C195.391 133.668 200.953 132.549 204.383 134.339C205.502 134.916 206.469 135.906 207.082 137.072C208.838 139.168 208.425 142.325 206.174 143.962C203.805 145.693 199.963 146.353 197.158 145.481C193.505 144.339 190.535 140.535 193.128 136.872ZM100.012 190.745C96.4295 183.324 98.0441 174.514 103.018 168.166C106.306 163.961 110.619 160.145 114.532 156.506C118.02 153.267 121.733 150.251 125.74 147.66C133.494 142.643 142.215 139.156 151.349 137.684C160.895 136.141 170.618 137.154 180.188 137.814C181.142 137.884 181.908 138.25 182.486 138.791C185.868 140.617 185.09 144.987 182.509 147.272C179.268 150.134 174.743 150.216 170.818 151.535C166.328 153.043 162.227 155.728 158.491 158.614C149.982 165.186 143.087 173.737 136.04 181.782C130.795 187.765 125.174 195.574 117.455 198.53C110.336 201.239 103.194 197.34 100.012 190.745ZM75.8877 228.423C70.1365 234.171 60.8026 234.171 55.0513 228.423C49.3001 222.675 49.3001 213.347 55.0513 207.599C60.8026 201.851 70.1365 201.851 75.8877 207.599C81.639 213.347 81.639 222.675 75.8877 228.423ZM226.716 92.6682C214.059 105.318 193.54 105.318 180.883 92.6682C168.226 80.0185 168.226 59.5127 180.883 46.863C193.54 34.2133 214.059 34.2133 226.716 46.863C239.373 59.5127 239.373 80.0185 226.716 92.6682ZM252.974 36.4511C248.366 41.0564 240.905 41.0564 236.309 36.4511C231.701 31.8459 231.701 24.3903 236.309 19.7969C240.917 15.1916 248.377 15.1916 252.974 19.7969C257.57 24.3903 257.57 31.8577 252.974 36.4511Z" fill="white"/>
</svg>
